<?xml version="1.0" standalone="no"?>
<!DOCTYPE svg PUBLIC "-//W3C//DTD SVG 20010904//EN"
 "http://www.w3.org/TR/2001/REC-SVG-20010904/DTD/svg10.dtd">
<svg version="1.0" xmlns="http://www.w3.org/2000/svg"
 width="1024.000000pt" height="1024.000000pt" viewBox="0 0 1024.000000 1024.000000"
 preserveAspectRatio="xMidYMid meet">
<metadata>
Created by potrace 1.11, written by Peter Selinger 2001-2013
</metadata>
<g transform="translate(0.000000,1024.000000) scale(0.100000,-0.100000)"
fill="#000000" stroke="none">
<path d="M4997 9464 c-1 -1 -65 -5 -142 -8 -146 -8 -164 -9 -255 -20 -30 -4
-75 -9 -100 -12 -65 -8 -252 -40 -340 -59 -41 -9 -82 -18 -90 -20 -45 -9 -156
-39 -230 -62 -47 -15 -87 -27 -90 -28 -84 -18 -397 -147 -575 -237 -288 -146
-655 -393 -865 -583 -19 -18 -60 -54 -90 -81 -30 -27 -104 -98 -165 -159 -380
-379 -663 -773 -872 -1215 -41 -85 -78 -163 -83 -172 -6 -10 -10 -23 -10 -29
0 -6 -6 -25 -14 -42 -61 -136 -172 -499 -200 -653 -2 -16 -7 -40 -10 -54 -12
-51 -36 -186 -41 -229 -3 -23 -7 -55 -9 -70 -4 -25 -13 -106 -21 -186 -25
-274 -21 -721 9 -935 3 -19 8 -57 11 -85 9 -83 35 -234 56 -335 12 -52 23
-106 25 -120 23 -127 157 -524 238 -705 87 -192 245 -481 312 -572 13 -17 24
-34 24 -38 0 -18 243 -336 349 -455 585 -664 1269 -1116 2024 -1339 122 -36
378 -98 437 -106 14 -2 39 -6 55 -9 17 -2 50 -8 75 -11 24 -4 47 -8 50 -10 3
-2 41 -6 85 -10 44 -4 89 -9 100 -11 129 -25 809 -25 945 0 14 3 50 8 80 11
53 5 88 10 140 20 14 3 43 8 65 11 154 22 541 122 640 164 11 5 38 14 60 21
166 50 248 148 239 287 -5 65 -32 119 -86 172 -55 52 -111 70 -203 63 -136
-11 -493 -3 -537 11 -7 3 -42 7 -78 11 -36 3 -103 12 -150 21 -76 13 -111 20
-200 40 -14 3 -43 9 -65 14 -22 5 -94 25 -160 45 -470 143 -905 390 -1294 736
-538 478 -904 1040 -1087 1672 -20 67 -37 131 -40 142 -2 11 -12 61 -23 110
-20 96 -39 204 -46 270 -3 22 -7 54 -10 70 -25 148 -25 684 0 845 2 14 7 48
10 75 3 28 10 75 15 105 5 30 12 73 15 95 10 67 83 349 116 447 93 276 209
516 370 769 30 46 59 91 66 99 6 8 38 51 71 95 163 223 432 504 657 688 289
237 601 421 930 550 125 49 254 93 295 102 8 2 60 15 115 29 113 29 321 67
440 81 181 21 470 32 540 20 121 -20 234 13 280 83 30 46 55 129 55 188 0 102
-66 192 -167 228 -27 10 -57 21 -68 26 -70 28 -435 130 -523 145 -18 3 -63 12
-101 20 -74 15 -236 40 -336 51 -33 3 -67 8 -76 9 -45 9 -534 25 -542 19z"/>
<path d="M7260 7292 c-26 -4 -77 -36 -97 -62 -7 -8 -28 -46 -47 -85 -511
-1037 -557 -1125 -573 -1126 -10 0 -27 -2 -38 -4 -11 -2 -38 -6 -60 -10 -22
-3 -49 -7 -60 -9 -11 -2 -45 -7 -76 -10 -31 -4 -65 -8 -75 -10 -35 -7 -122
-20 -204 -31 -47 -6 -65 -9 -140 -20 -25 -4 -56 -8 -70 -10 -14 -2 -56 -8 -95
-14 -38 -6 -87 -13 -107 -16 -21 -3 -55 -8 -75 -11 -21 -3 -65 -9 -98 -14 -33
-5 -82 -12 -110 -15 -111 -14 -174 -50 -202 -115 -15 -38 -9 -114 12 -146 17
-27 278 -287 762 -760 l196 -192 -6 -43 c-4 -24 -9 -56 -12 -71 -9 -49 -68
-394 -80 -468 -5 -31 -34 -206 -40 -240 -3 -14 -9 -50 -15 -80 -5 -30 -12 -72
-16 -94 -3 -21 -8 -48 -10 -60 -2 -11 -7 -37 -10 -56 -2 -19 -9 -57 -14 -85
-18 -93 -21 -150 -11 -177 22 -59 110 -108 181 -101 33 3 164 64 330 154 41
22 134 71 205 108 123 65 177 94 370 196 44 23 133 70 197 104 l118 62 37 -18
c21 -9 72 -36 113 -58 41 -23 138 -74 215 -115 77 -40 167 -87 200 -105 260
-140 515 -274 572 -301 55 -27 164 -36 171 -15 2 6 9 11 16 11 14 0 59 45 75
77 16 32 14 66 -19 261 -17 97 -49 283 -71 412 -22 129 -42 246 -44 260 -2 14
-11 66 -20 115 -8 50 -17 100 -19 110 -2 11 -7 40 -11 65 -4 25 -9 54 -11 65
-18 87 -36 63 249 344 144 142 357 352 474 466 118 115 219 222 228 242 36 76
-2 186 -75 217 -34 15 -105 30 -185 40 -22 3 -119 16 -215 31 -96 14 -191 28
-210 30 -19 3 -46 7 -60 10 -14 3 -46 7 -73 10 -26 2 -73 9 -105 14 -31 6 -77
13 -102 16 -25 3 -56 8 -70 10 -14 3 -43 7 -65 10 -22 2 -58 7 -80 10 -59 9
-85 13 -137 20 l-46 7 -48 97 c-378 769 -538 1088 -555 1112 -30 43 -100 69
-159 61z"/>
</g>
</svg>
